<?xml version="1.0" encoding="UTF-8"?>
<!DOCTYPE svg PUBLIC "-//W3C//DTD SVG 1.1//EN" "http://www.w3.org/Graphics/SVG/1.1/DTD/svg11.dtd">
<svg xmlns="http://www.w3.org/2000/svg" version="1.1" width="64px" height="64px" style="shape-rendering:geometricPrecision; text-rendering:geometricPrecision; image-rendering:optimizeQuality; fill-rule:evenodd; clip-rule:evenodd" xmlns:xlink="http://www.w3.org/1999/xlink">
<g><path style="opacity:0.768" fill="#000000" d="M 33.5,3.5 C 35.0174,3.51056 36.1841,4.17723 37,5.5C 41.0214,13.2022 44.1881,21.2022 46.5,29.5C 46.4765,34.0777 44.8098,37.911 41.5,41C 40.2161,41.6838 39.0495,41.5171 38,40.5C 37.6667,38.8333 37.3333,37.1667 37,35.5C 36.7874,43.8763 36.1207,52.2096 35,60.5C 30.9051,63.6371 28.2384,62.6371 27,57.5C 26.6667,52.1667 26.3333,46.8333 26,41.5C 20.3683,39.673 17.5349,35.673 17.5,29.5C 17.5943,27.0772 18.0943,24.7438 19,22.5C 21.2737,18.2864 23.2737,13.9531 25,9.5C 26.4579,8.25316 27.9579,8.25316 29.5,9.5C 30.8435,7.4714 32.1769,5.4714 33.5,3.5 Z M 31.5,14.5 C 33.6864,15.8233 35.1864,17.8233 36,20.5C 37.6077,23.3513 38.2743,26.3513 38,29.5C 36.8456,27.0426 35.5123,27.0426 34,29.5C 32.3333,26.8333 30.6667,24.1667 29,21.5C 27.6667,24.1667 26.3333,26.8333 25,29.5C 24.3131,31.9203 24.8131,34.087 26.5,36C 26,36.5 25.5,37 25,37.5C 21.9801,34.3768 20.9801,30.7102 22,26.5C 23.6667,22.8333 25.3333,19.1667 27,15.5C 29.0449,17.0432 30.5449,16.7099 31.5,14.5 Z M 30.5,37.5 C 31.7562,37.4614 32.7562,37.9614 33.5,39C 32.8543,44.4478 32.1876,49.9478 31.5,55.5C 30.8124,49.9478 30.1457,44.4478 29.5,39C 30.056,38.6174 30.3893,38.1174 30.5,37.5 Z"/></g>
<g><path style="opacity:0.568" fill="#000000" d="M 13.5,8.5 C 14.8333,8.5 16.1667,8.5 17.5,8.5C 17.5,9.5 17.5,10.5 17.5,11.5C 16.1667,11.5 14.8333,11.5 13.5,11.5C 13.5,10.5 13.5,9.5 13.5,8.5 Z"/></g>
<g><path style="opacity:0.567" fill="#000000" d="M 40.5,46.5 C 41.8333,46.5 43.1667,46.5 44.5,46.5C 44.5,47.5 44.5,48.5 44.5,49.5C 43.1667,49.5 41.8333,49.5 40.5,49.5C 40.5,48.5 40.5,47.5 40.5,46.5 Z"/></g>
</svg>
